PathFileType	4	(X/Y/Z)	s10c0001.trc
DataRate	CameraRate	NumFrames	NumMarkers	Units	OrigDataRate	OrigDataStartFrame	OrigNumFrames
200	200	6	49	mm	200	1750	2000
Frame#	Time	racr			lacr			c7			jug			rlel			rdr			llel			ldr			s2			lic			ric			lasi			rasi			rpsi			lpsi			rgt			lgt			rth1			rth2			rth3			rth4			rlfc			rmfc			rsh1			rsh2			rsh3			rsh4			rlmal			rmmal			rcal			rtoe			rmt5			rmt1			lth1			lth2			lth4			lth3			llfc			lmfc			llmal			lmmal			lcal			lmt1			lmt5			lsh1			lsh2			lsh3			lsh4			ltoe			
		X1	Y1	Z1	X2	Y2	Z2	X3	Y3	Z3	X4	Y4	Z4	X5	Y5	Z5	X6	Y6	Z6	X7	Y7	Z7	X8	Y8	Z8	X9	Y9	Z9	X10	Y10	Z10	X11	Y11	Z11	X12	Y12	Z12	X13	Y13	Z13	X14	Y14	Z14	X15	Y15	Z15	X16	Y16	Z16	X17	Y17	Z17	X18	Y18	Z18	X19	Y19	Z19	X20	Y20	Z20	X21	Y21	Z21	X22	Y22	Z22	X23	Y23	Z23	X24	Y24	Z24	X25	Y25	Z25	X26	Y26	Z26	X27	Y27	Z27	X28	Y28	Z28	X29	Y29	Z29	X30	Y30	Z30	X31	Y31	Z31	X32	Y32	Z32	X33	Y33	Z33	X34	Y34	Z34	X35	Y35	Z35	X36	Y36	Z36	X37	Y37	Z37	X38	Y38	Z38	X39	Y39	Z39	X40	Y40	Z40	X41	Y41	Z41	X42	Y42	Z42	X43	Y43	Z43	X44	Y44	Z44	X45	Y45	Z45	X46	Y46	Z46	X47	Y47	Z47	X48	Y48	Z48	X49	Y49	Z49	
1750	8.7500	456.089935	1379.273438	682.737915	482.299408	1387.386353	304.859131	426.665527	1426.815308	483.750641	559.635193	1377.479492	503.062103	446.575653	1124.334351	817.105652	469.064880	913.949036	933.208191	486.508606	1110.109009	192.846954	544.820190	908.863342	88.378334	384.890381	931.632568	495.094513	535.152344	994.399170	351.740356	534.998901	1002.382385	649.083557	597.098877	918.964966	384.805054	577.894653	908.274292	639.165955	402.667755	972.447083	557.857300	404.008789	983.936279	443.891968	460.846527	854.008423	683.773621	471.950348	854.542969	308.116486	480.860901	729.375061	715.099182	504.652252	643.914978	701.040405	482.186218	561.626282	692.059326	540.801575	646.533875	692.535400	492.258026	459.350128	675.197327	480.448914	441.110840	562.574951	446.615295	359.915710	717.025146	468.018860	273.157257	714.773865	443.740936	190.446915	716.695618	499.708527	274.393341	691.721008	454.129913	84.987915	710.010559	483.519958	95.896423	630.145325	420.307465	50.462410	655.014465	652.025452	85.094536	711.335754	566.244385	42.211098	755.908936	609.721436	46.713650	658.366943	494.355133	746.226685	282.872009	517.051147	663.836853	295.376007	550.650024	666.495361	305.625000	495.263519	577.960388	301.335541	496.239288	472.708832	315.245087	490.857971	454.674622	425.494995	450.918091	103.772537	283.900330	469.912445	101.055153	362.317352	411.060333	58.724377	327.027283	612.166260	47.431900	347.363525	579.625916	46.138683	245.217514	447.018585	364.293488	269.691467	473.105835	281.437592	275.771973	452.423889	194.203339	273.295227	501.846191	283.014282	301.723511	653.368958	92.432129	295.319031	
1751	8.7550	456.117249	1379.291748	682.755981	482.347839	1387.382690	304.874786	426.660461	1426.803589	483.850769	559.632935	1377.493286	503.061523	446.584534	1124.310913	817.101501	469.057526	913.954163	933.213623	486.556030	1110.116211	192.871887	544.854431	908.868530	88.386307	384.870667	931.672302	495.184265	535.143433	994.413330	351.719666	535.015320	1002.399109	649.107849	597.111755	918.959656	384.811218	577.904785	908.271240	639.177795	402.741516	972.412170	557.868530	404.025543	983.925232	443.913330	460.876312	854.019348	683.798340	471.961029	854.542114	308.140015	480.833649	729.322998	715.114624	504.679901	643.924377	701.078186	482.222168	561.624146	692.078552	540.848755	646.539612	692.589600	492.285431	459.393555	675.233459	480.461365	441.110291	562.570862	446.648712	359.924835	717.050842	468.022705	273.153381	714.787720	443.710175	190.443573	716.690247	499.704071	274.392914	691.735046	454.164886	84.974403	710.038147	483.514801	95.882378	630.152893	420.397369	50.400597	655.056641	652.053894	85.080292	711.337524	566.264465	42.212425	755.924927	609.727051	46.734890	658.389038	494.355469	746.248657	282.864929	517.061768	663.831238	295.405243	550.690247	666.481445	305.667053	495.155487	577.950073	301.259308	496.229614	472.710632	315.221832	490.886658	454.679016	425.513824	450.930878	103.783142	283.936340	469.922943	101.058372	362.356415	411.077301	58.732311	327.046112	612.166077	47.453186	347.387360	579.624817	46.143574	245.210571	447.028473	364.304169	269.688293	473.159241	281.463135	275.772430	452.432373	194.212753	273.285065	501.852234	283.020599	301.724823	653.403992	92.427177	295.341675	
1752	8.7600	456.121246	1379.308105	682.764893	482.350708	1387.392090	304.882690	426.694122	1426.754517	483.792725	559.645081	1377.490967	503.070831	446.586060	1124.336426	817.115417	469.073212	913.969360	933.217773	486.561005	1110.117065	192.877853	544.895996	908.888184	88.396034	384.865631	931.622742	495.144775	535.147278	994.408386	351.705139	535.025818	1002.399109	649.096558	597.086182	918.962585	384.797760	577.899475	908.270447	639.193909	402.741516	972.412231	557.868530	404.025116	983.905823	443.909515	460.865875	854.009888	683.790100	471.956940	854.541687	308.146210	480.812378	729.325500	715.109375	504.685059	643.921997	701.081055	482.223022	561.616394	692.076416	540.828247	646.531738	692.576599	492.296753	459.359161	675.222900	480.495575	441.121765	562.568176	446.658691	359.907715	717.037781	468.006805	273.141083	714.775818	443.727905	190.449280	716.700195	499.705109	274.397491	691.728821	454.162720	84.983643	710.041870	483.521729	95.892471	630.142944	420.361755	50.445473	655.039368	652.029358	85.070137	711.351196	566.239319	42.214836	755.928345	609.721191	46.730831	658.385315	494.363647	746.244629	282.886566	517.058411	663.836670	295.374054	550.687683	666.482788	305.658203	495.265320	577.963867	301.333344	496.218292	472.714172	315.247864	490.878357	454.686646	425.510284	450.922394	103.782745	283.945312	469.906677	101.034180	362.364441	411.061218	58.722965	327.043213	612.168030	47.452785	347.386963	579.625610	46.137989	245.217346	447.029175	364.309235	269.685547	473.169342	281.468964	275.778900	452.421753	194.211258	273.295929	501.877502	283.025391	301.732239	653.384094	92.415970	295.351349	
1753	8.7650	456.118927	1379.301392	682.756897	482.354706	1387.398315	304.883453	426.657013	1426.803955	483.826752	559.650940	1377.494629	503.053162	446.596741	1124.331787	817.098206	469.054413	913.973633	933.226807	486.559021	1110.134766	192.871780	544.895752	908.895020	88.372108	384.837860	931.669678	495.167908	535.130798	994.410095	351.701141	534.934082	1002.364746	649.084473	597.097595	918.965698	384.774170	577.880127	908.280396	639.150024	402.627106	972.440308	557.860901	403.993561	983.908752	443.894531	460.831757	854.003601	683.773193	471.951294	854.557678	308.128235	480.781342	729.310669	715.091736	504.643250	643.911072	701.052612	482.207642	561.615906	692.059082	540.801697	646.508484	692.555359	492.273407	459.365112	675.209900	480.544983	441.143341	562.566772	446.625244	359.911407	717.023438	468.016418	273.163788	714.778503	443.710846	190.466248	716.681580	499.694672	274.287048	691.629700	454.119171	84.968025	710.024048	483.499603	95.883987	630.145386	420.318054	50.452641	655.037720	652.010559	85.063805	711.334229	566.161438	42.146774	755.935791	609.722595	46.731487	658.398926	494.372833	746.236572	282.855225	517.063599	663.850952	295.406464	550.690125	666.480286	305.666687	495.261322	577.967590	301.329224	496.230499	472.712250	315.221161	490.863342	454.662079	425.485321	450.911957	103.762138	283.928589	469.867706	101.038734	362.337799	411.044220	58.710941	327.044220	612.146484	47.420643	347.357239	579.625732	46.146893	245.200821	447.009308	364.305176	269.692444	473.164459	281.462372	275.764343	452.414185	194.204056	273.276825	501.847809	283.016235	301.724060	653.384277	92.402031	295.317841	
1754	8.7700	456.106689	1379.313477	682.725220	482.336243	1387.397705	304.854858	426.702057	1426.806030	483.708466	559.675964	1377.483398	503.050323	446.607727	1124.374878	817.146912	469.071716	913.993835	933.255066	486.539917	1110.135742	192.835159	544.906006	908.913818	88.348404	384.831421	931.643677	495.090302	535.132019	994.410522	351.697388	534.808777	1002.356934	649.059448	597.070068	918.960266	384.750397	577.856995	908.281677	639.122131	402.502594	972.457214	557.807129	403.966644	983.919067	443.842407	460.776672	853.990723	683.727600	471.920319	854.547485	308.080475	480.747620	729.309509	715.053528	504.570618	643.854187	700.988770	482.186646	561.611267	692.027954	540.745483	646.474487	692.493042	492.247345	459.327087	675.165466	480.602966	441.173065	562.566711	446.621979	359.894165	717.006714	468.015656	273.155151	714.776306	443.713135	190.457001	716.669678	499.712585	274.397552	691.706604	454.066193	84.968483	709.989685	483.517517	95.873230	630.158447	420.281464	50.358292	655.082947	651.991577	85.059906	711.320496	566.126404	42.140732	755.907715	609.721863	46.713223	658.376465	494.347656	746.244568	282.853210	517.065430	663.824951	295.414551	550.692566	666.477661	305.675110	495.164215	577.947693	301.267731	496.238159	472.718597	315.242676	490.798340	454.651154	425.461487	450.865204	103.767021	283.910919	469.846008	101.002731	362.304504	411.050873	58.705704	327.025787	612.101379	47.404327	347.359650	579.628845	46.140606	245.217392	446.992828	364.304840	269.681763	473.125000	281.453674	275.766205	452.390747	194.244843	273.250427	501.849854	283.018585	301.724304	653.375061	92.401764	295.315765	
1755	8.7750	456.103424	1379.312012	682.698547	482.343903	1387.408936	304.821503	426.741364	1426.742798	483.573730	559.705200	1377.480835	503.074493	446.612091	1124.392578	817.128601	469.074860	914.007812	933.246216	486.506348	1110.140015	192.804413	544.907166	908.924805	88.304947	384.834930	931.585632	494.972595	535.133179	994.406250	351.697937	534.728699	1002.348938	649.043396	597.064453	918.958252	384.764191	577.813049	908.255432	639.113647	402.277161	972.530884	557.784363	403.929657	983.936523	443.767609	460.705048	853.962769	683.680664	471.915924	854.537903	308.052368	480.705231	729.291992	715.004272	504.522278	643.845093	700.908264	482.165222	561.588806	691.998657	540.687683	646.442322	692.437622	492.210663	459.303589	675.131836	480.663025	441.209015	562.567810	446.571289	359.888458	716.968384	468.052765	273.164154	714.781250	443.738678	190.445129	716.687622	499.702972	274.432892	691.691650	454.001465	84.960472	709.963501	483.536987	95.884377	630.151550	420.209839	50.362991	655.037781	651.965210	85.062202	711.283752	566.076904	42.132706	755.879456	609.714661	46.720249	658.378906	494.366150	746.232422	282.845001	517.079407	663.840332	295.377502	550.687744	666.484009	305.658600	495.265381	577.968750	301.314392	496.214935	472.713623	315.219086	490.733246	454.622925	425.419189	450.833557	103.764061	283.876038	469.793671	100.992340	362.277344	411.034363	58.691708	326.981873	612.059631	47.386799	347.325806	579.628174	46.136906	245.219070	446.987640	364.316315	269.687744	473.118896	281.446808	275.746796	452.393127	194.245590	273.257660	501.835968	283.015625	301.723145	653.336365	92.390335	295.267029	
